<svg width="61" height="61" viewBox="0 0 61 61" fill="none" xmlns="http://www.w3.org/2000/svg">
<circle cx="30.1807" cy="30.7158" r="30" fill="#EFF6F1"/>
<path fill-rule="evenodd" clip-rule="evenodd" d="M39.4635 31.0001C39.4635 25.873 35.1464 21.7158 29.8221 21.7158C24.4978 21.7158 20.1807 25.873 20.1807 31.0001C20.1807 35.634 23.7058 39.475 28.3156 40.1721V33.6847H25.8669V31.0001H28.3156V28.9547C28.3156 26.6282 29.7554 25.3421 31.9574 25.3421C33.0124 25.3421 34.1159 25.5236 34.1159 25.5236V27.8087H32.8996C31.7026 27.8087 31.3281 28.524 31.3281 29.2593V31.0001H34.0019L33.5749 33.6847H31.3285V40.173C35.9383 39.4762 39.4635 35.6353 39.4635 31.0001Z" fill="#274C5B"/>
</svg>
